<svg width="16" height="16" viewBox="0 0 16 16" fill="none" xmlns="http://www.w3.org/2000/svg">
  <path d="M4 2C4 0.895431 4.89543 0 6 0H12C13.1046 0 14 0.895431 14 2V8C14 9.10457 13.1046 10 12 10H10V12C10 13.1046 9.10457 14 8 14H2C0.895431 14 0 13.1046 0 12V6C0 4.89543 0.895431 4 2 4H4V2Z" fill="currentColor"/>
  <path d="M2 6C2 5.44772 2.44772 5 3 5H8C8.55228 5 9 5.44772 9 6V11C9 11.5523 8.55228 12 8 12H3C2.44772 12 2 11.5523 2 11V6Z" fill="white"/>
  <path d="M6 2C6 1.44772 6.44772 1 7 1H11C11.5523 1 12 1.44772 12 2V6C12 6.55228 11.5523 7 11 7H10V8C10 8.55228 9.55228 9 9 9H8V6C8 4.89543 7.10457 4 6 4V2Z" fill="white"/>
</svg> 